<?xml version="1.0" encoding="UTF-8" standalone="no"?>
<!-- Uploaded to: SVG Repo, www.svgrepo.com, Generator: SVG Repo Mixer Tools -->

<svg
   height="500"
   width="500"
   version="1.1"
   id="Capa_1"
   viewBox="0 0 26.168125 26.168125"
   xml:space="preserve"
   sodipodi:docname="plane.svg"
   inkscape:version="1.4.2 (ebf0e940d0, 2025-05-08)"
   xmlns:inkscape="http://www.inkscape.org/namespaces/inkscape"
   xmlns:sodipodi="http://sodipodi.sourceforge.net/DTD/sodipodi-0.dtd"
   xmlns="http://www.w3.org/2000/svg"
   xmlns:svg="http://www.w3.org/2000/svg"><defs
   id="defs1" /><sodipodi:namedview
   id="namedview1"
   pagecolor="#ffffff"
   bordercolor="#000000"
   borderopacity="0.25"
   inkscape:showpageshadow="2"
   inkscape:pageopacity="0.0"
   inkscape:pagecheckerboard="0"
   inkscape:deskcolor="#d1d1d1"
   inkscape:zoom="1.0244209"
   inkscape:cx="102.49693"
   inkscape:cy="341.16835"
   inkscape:window-width="2560"
   inkscape:window-height="1368"
   inkscape:window-x="0"
   inkscape:window-y="0"
   inkscape:window-maximized="1"
   inkscape:current-layer="Capa_1" />
<g
   id="g1"
   transform="matrix(0.3915391,0.45553355,-0.3915391,0.45553355,10.682753,-6.2544756)">
	<path
   style="fill:#030104"
   d="m 40.522,0.972 c -1.294,-1.296 -3.396,-1.296 -4.693,0 L 27.936,9.12 10.375,3.355 4.657,9.075 20.806,16.484 10.558,27.069 c -0.253,0.252 -0.486,0.505 -0.692,0.756 l -6.621,-3.039 -2.872,2.871 7.626,4.714 1.941,1.942 5.062,7.556 2.662,-2.663 -3.691,-7.896 c 0.157,-0.107 0.31,-0.232 0.451,-0.374 l 10.775,-10.433 0.169,0.169 8.424,16.711 5.303,-5.306 -6.352,-18.779 -0.05,-0.051 7.829,-7.582 c 1.298,-1.294 1.298,-3.397 0,-4.693 z"
   id="path1" />
</g>
</svg>
